<mxfile host="app.diagrams.net" modified="2021-04-21T02:00:47.715Z" agent="5.0 (X11; Linux x86_64) AppleWebKit/537.36 (KHTML, like Gecko) Chrome/91.0.4469.4 Safari/537.36" etag="e7IukLnkkb79vjx_3ih3" version="14.5.1" type="github">
  <diagram id="sKVwFVmtXAkl9CP9RymY" name="Page-1">
    <mxGraphModel dx="868" dy="494" grid="1" gridSize="10" guides="1" tooltips="1" connect="1" arrows="1" fold="1" page="1" pageScale="1" pageWidth="827" pageHeight="1169" math="0" shadow="0">
      <root>
        <mxCell id="0" />
        <mxCell id="1" parent="0" />
        <mxCell id="L3KVluouJUysm1kjFy2x-3" style="edgeStyle=orthogonalEdgeStyle;rounded=0;orthogonalLoop=1;jettySize=auto;html=1;entryX=0.5;entryY=0;entryDx=0;entryDy=0;" edge="1" parent="1" source="L3KVluouJUysm1kjFy2x-1" target="L3KVluouJUysm1kjFy2x-2">
          <mxGeometry relative="1" as="geometry">
            <Array as="points">
              <mxPoint x="120" y="300" />
              <mxPoint x="370" y="300" />
            </Array>
          </mxGeometry>
        </mxCell>
        <mxCell id="L3KVluouJUysm1kjFy2x-1" value="" style="rounded=0;whiteSpace=wrap;html=1;" vertex="1" parent="1">
          <mxGeometry x="60" y="410" width="120" height="60" as="geometry" />
        </mxCell>
        <mxCell id="L3KVluouJUysm1kjFy2x-5" style="edgeStyle=orthogonalEdgeStyle;rounded=0;orthogonalLoop=1;jettySize=auto;html=1;entryX=0.5;entryY=1;entryDx=0;entryDy=0;" edge="1" parent="1" source="L3KVluouJUysm1kjFy2x-2" target="L3KVluouJUysm1kjFy2x-1">
          <mxGeometry relative="1" as="geometry">
            <Array as="points">
              <mxPoint x="370" y="560" />
              <mxPoint x="120" y="560" />
            </Array>
          </mxGeometry>
        </mxCell>
        <mxCell id="L3KVluouJUysm1kjFy2x-7" style="edgeStyle=orthogonalEdgeStyle;rounded=0;orthogonalLoop=1;jettySize=auto;html=1;exitX=0;exitY=1;exitDx=0;exitDy=0;entryX=1;entryY=0.5;entryDx=0;entryDy=0;" edge="1" parent="1" source="L3KVluouJUysm1kjFy2x-31" target="L3KVluouJUysm1kjFy2x-6">
          <mxGeometry relative="1" as="geometry">
            <Array as="points">
              <mxPoint x="292" y="780" />
              <mxPoint x="730" y="780" />
              <mxPoint x="730" y="440" />
            </Array>
          </mxGeometry>
        </mxCell>
        <mxCell id="L3KVluouJUysm1kjFy2x-9" style="edgeStyle=orthogonalEdgeStyle;rounded=0;orthogonalLoop=1;jettySize=auto;html=1;exitX=1;exitY=0;exitDx=0;exitDy=0;entryX=0.95;entryY=0;entryDx=0;entryDy=0;entryPerimeter=0;" edge="1" parent="1" source="L3KVluouJUysm1kjFy2x-2" target="L3KVluouJUysm1kjFy2x-6">
          <mxGeometry relative="1" as="geometry" />
        </mxCell>
        <mxCell id="L3KVluouJUysm1kjFy2x-13" style="edgeStyle=orthogonalEdgeStyle;rounded=0;orthogonalLoop=1;jettySize=auto;html=1;entryX=0.75;entryY=1;entryDx=0;entryDy=0;" edge="1" parent="1" source="L3KVluouJUysm1kjFy2x-2" target="L3KVluouJUysm1kjFy2x-6">
          <mxGeometry relative="1" as="geometry">
            <Array as="points">
              <mxPoint x="370" y="690" />
              <mxPoint x="680" y="690" />
            </Array>
          </mxGeometry>
        </mxCell>
        <mxCell id="L3KVluouJUysm1kjFy2x-17" style="edgeStyle=orthogonalEdgeStyle;rounded=0;orthogonalLoop=1;jettySize=auto;html=1;entryX=-0.009;entryY=0.171;entryDx=0;entryDy=0;entryPerimeter=0;" edge="1" parent="1" source="L3KVluouJUysm1kjFy2x-2" target="L3KVluouJUysm1kjFy2x-6">
          <mxGeometry relative="1" as="geometry">
            <Array as="points">
              <mxPoint x="540" y="420" />
              <mxPoint x="540" y="422" />
            </Array>
          </mxGeometry>
        </mxCell>
        <mxCell id="L3KVluouJUysm1kjFy2x-2" value="" style="ellipse;whiteSpace=wrap;html=1;aspect=fixed;" vertex="1" parent="1">
          <mxGeometry x="260" y="320" width="220" height="220" as="geometry" />
        </mxCell>
        <mxCell id="L3KVluouJUysm1kjFy2x-10" style="edgeStyle=orthogonalEdgeStyle;rounded=0;orthogonalLoop=1;jettySize=auto;html=1;exitX=0.5;exitY=0;exitDx=0;exitDy=0;" edge="1" parent="1" source="L3KVluouJUysm1kjFy2x-6" target="L3KVluouJUysm1kjFy2x-2">
          <mxGeometry relative="1" as="geometry">
            <Array as="points">
              <mxPoint x="650" y="390" />
            </Array>
          </mxGeometry>
        </mxCell>
        <mxCell id="L3KVluouJUysm1kjFy2x-11" style="edgeStyle=orthogonalEdgeStyle;rounded=0;orthogonalLoop=1;jettySize=auto;html=1;exitX=1;exitY=0.75;exitDx=0;exitDy=0;entryX=0.286;entryY=0.95;entryDx=0;entryDy=0;entryPerimeter=0;" edge="1" parent="1" source="L3KVluouJUysm1kjFy2x-6" target="L3KVluouJUysm1kjFy2x-2">
          <mxGeometry relative="1" as="geometry">
            <Array as="points">
              <mxPoint x="730" y="455" />
              <mxPoint x="730" y="750" />
              <mxPoint x="323" y="750" />
            </Array>
          </mxGeometry>
        </mxCell>
        <mxCell id="L3KVluouJUysm1kjFy2x-12" style="edgeStyle=orthogonalEdgeStyle;rounded=0;orthogonalLoop=1;jettySize=auto;html=1;exitX=1;exitY=1;exitDx=0;exitDy=0;entryX=0.373;entryY=1.009;entryDx=0;entryDy=0;entryPerimeter=0;" edge="1" parent="1" source="L3KVluouJUysm1kjFy2x-6" target="L3KVluouJUysm1kjFy2x-2">
          <mxGeometry relative="1" as="geometry">
            <Array as="points">
              <mxPoint x="710" y="730" />
              <mxPoint x="342" y="730" />
            </Array>
          </mxGeometry>
        </mxCell>
        <mxCell id="L3KVluouJUysm1kjFy2x-14" style="edgeStyle=orthogonalEdgeStyle;rounded=0;orthogonalLoop=1;jettySize=auto;html=1;exitX=0.5;exitY=1;exitDx=0;exitDy=0;entryX=0.586;entryY=1;entryDx=0;entryDy=0;entryPerimeter=0;" edge="1" parent="1" source="L3KVluouJUysm1kjFy2x-6" target="L3KVluouJUysm1kjFy2x-2">
          <mxGeometry relative="1" as="geometry">
            <Array as="points">
              <mxPoint x="650" y="650" />
              <mxPoint x="389" y="650" />
            </Array>
          </mxGeometry>
        </mxCell>
        <mxCell id="L3KVluouJUysm1kjFy2x-16" style="edgeStyle=orthogonalEdgeStyle;rounded=0;orthogonalLoop=1;jettySize=auto;html=1;exitX=0;exitY=1;exitDx=0;exitDy=0;entryX=0.95;entryY=0.714;entryDx=0;entryDy=0;entryPerimeter=0;" edge="1" parent="1" source="L3KVluouJUysm1kjFy2x-6" target="L3KVluouJUysm1kjFy2x-2">
          <mxGeometry relative="1" as="geometry">
            <Array as="points">
              <mxPoint x="600" y="477" />
            </Array>
          </mxGeometry>
        </mxCell>
        <mxCell id="L3KVluouJUysm1kjFy2x-6" value="" style="rounded=0;whiteSpace=wrap;html=1;" vertex="1" parent="1">
          <mxGeometry x="600" y="410" width="110" height="70" as="geometry" />
        </mxCell>
        <mxCell id="L3KVluouJUysm1kjFy2x-8" style="edgeStyle=orthogonalEdgeStyle;rounded=0;orthogonalLoop=1;jettySize=auto;html=1;exitX=0.5;exitY=1;exitDx=0;exitDy=0;entryX=0.532;entryY=-0.005;entryDx=0;entryDy=0;entryPerimeter=0;" edge="1" parent="1" source="L3KVluouJUysm1kjFy2x-2" target="L3KVluouJUysm1kjFy2x-2">
          <mxGeometry relative="1" as="geometry">
            <Array as="points">
              <mxPoint x="370" y="560" />
              <mxPoint x="780" y="560" />
              <mxPoint x="780" y="319" />
            </Array>
          </mxGeometry>
        </mxCell>
        <mxCell id="L3KVluouJUysm1kjFy2x-18" value="Anggota" style="text;html=1;strokeColor=none;fillColor=none;align=center;verticalAlign=middle;whiteSpace=wrap;rounded=0;" vertex="1" parent="1">
          <mxGeometry x="100" y="430" width="40" height="20" as="geometry" />
        </mxCell>
        <mxCell id="L3KVluouJUysm1kjFy2x-19" value="SISTEM INFORMASI PERPUSTAKAAN&amp;nbsp;&lt;br&gt;UDINUS" style="text;html=1;strokeColor=none;fillColor=none;align=center;verticalAlign=middle;whiteSpace=wrap;rounded=0;" vertex="1" parent="1">
          <mxGeometry x="350" y="420" width="40" height="20" as="geometry" />
        </mxCell>
        <mxCell id="L3KVluouJUysm1kjFy2x-20" value="login / logout" style="text;html=1;strokeColor=none;fillColor=none;align=center;verticalAlign=middle;whiteSpace=wrap;rounded=0;" vertex="1" parent="1">
          <mxGeometry x="540" y="290" width="40" height="20" as="geometry" />
        </mxCell>
        <mxCell id="L3KVluouJUysm1kjFy2x-21" value="Buku" style="text;html=1;strokeColor=none;fillColor=none;align=center;verticalAlign=middle;whiteSpace=wrap;rounded=0;" vertex="1" parent="1">
          <mxGeometry x="540" y="330" width="40" height="20" as="geometry" />
        </mxCell>
        <mxCell id="L3KVluouJUysm1kjFy2x-22" value="Pencarian buku" style="text;html=1;strokeColor=none;fillColor=none;align=center;verticalAlign=middle;whiteSpace=wrap;rounded=0;" vertex="1" parent="1">
          <mxGeometry x="520" y="370" width="100" height="20" as="geometry" />
        </mxCell>
        <mxCell id="L3KVluouJUysm1kjFy2x-24" value="anggota" style="text;html=1;strokeColor=none;fillColor=none;align=center;verticalAlign=middle;whiteSpace=wrap;rounded=0;" vertex="1" parent="1">
          <mxGeometry x="490" y="400" width="100" height="20" as="geometry" />
        </mxCell>
        <mxCell id="L3KVluouJUysm1kjFy2x-25" value="anggota" style="text;html=1;strokeColor=none;fillColor=none;align=center;verticalAlign=middle;whiteSpace=wrap;rounded=0;" vertex="1" parent="1">
          <mxGeometry x="490" y="450" width="100" height="20" as="geometry" />
        </mxCell>
        <mxCell id="L3KVluouJUysm1kjFy2x-26" value="pencarian peminjaman" style="text;html=1;strokeColor=none;fillColor=none;align=center;verticalAlign=middle;whiteSpace=wrap;rounded=0;" vertex="1" parent="1">
          <mxGeometry x="480" y="620" width="100" height="20" as="geometry" />
        </mxCell>
        <mxCell id="L3KVluouJUysm1kjFy2x-27" value="peminjaman" style="text;html=1;strokeColor=none;fillColor=none;align=center;verticalAlign=middle;whiteSpace=wrap;rounded=0;" vertex="1" parent="1">
          <mxGeometry x="470" y="660" width="100" height="20" as="geometry" />
        </mxCell>
        <mxCell id="L3KVluouJUysm1kjFy2x-28" value="pencarian petugas" style="text;html=1;strokeColor=none;fillColor=none;align=center;verticalAlign=middle;whiteSpace=wrap;rounded=0;" vertex="1" parent="1">
          <mxGeometry x="470" y="710" width="130" height="20" as="geometry" />
        </mxCell>
        <mxCell id="L3KVluouJUysm1kjFy2x-29" value="pengembalian" style="text;html=1;strokeColor=none;fillColor=none;align=center;verticalAlign=middle;whiteSpace=wrap;rounded=0;" vertex="1" parent="1">
          <mxGeometry x="470" y="730" width="130" height="20" as="geometry" />
        </mxCell>
        <mxCell id="L3KVluouJUysm1kjFy2x-31" value="petugas" style="text;html=1;strokeColor=none;fillColor=none;align=center;verticalAlign=middle;whiteSpace=wrap;rounded=0;" vertex="1" parent="1">
          <mxGeometry x="465" y="760" width="130" height="20" as="geometry" />
        </mxCell>
        <mxCell id="L3KVluouJUysm1kjFy2x-32" style="edgeStyle=orthogonalEdgeStyle;rounded=0;orthogonalLoop=1;jettySize=auto;html=1;exitX=0;exitY=1;exitDx=0;exitDy=0;entryX=1;entryY=0.5;entryDx=0;entryDy=0;" edge="1" parent="1" source="L3KVluouJUysm1kjFy2x-2" target="L3KVluouJUysm1kjFy2x-31">
          <mxGeometry relative="1" as="geometry">
            <mxPoint x="292.2182540694798" y="507.7817459305202" as="sourcePoint" />
            <mxPoint x="710" y="445" as="targetPoint" />
            <Array as="points" />
          </mxGeometry>
        </mxCell>
        <mxCell id="L3KVluouJUysm1kjFy2x-33" value="buku" style="text;html=1;strokeColor=none;fillColor=none;align=center;verticalAlign=middle;whiteSpace=wrap;rounded=0;" vertex="1" parent="1">
          <mxGeometry x="140" y="530" width="130" height="20" as="geometry" />
        </mxCell>
        <mxCell id="L3KVluouJUysm1kjFy2x-34" value="pencarian buku" style="text;html=1;strokeColor=none;fillColor=none;align=center;verticalAlign=middle;whiteSpace=wrap;rounded=0;" vertex="1" parent="1">
          <mxGeometry x="140" y="300" width="130" height="20" as="geometry" />
        </mxCell>
      </root>
    </mxGraphModel>
  </diagram>
</mxfile>
